#!OML:ASF F:\VICON\USERDATA\INSTALL\rory3\rory3.ASF
:FULLY-SPECIFIED
:DEGREES
823
root -16.0378 17.9663 10.2937 179.922 52.3856 172.447
lowerback 4.91936 0.741976 1.30297
upperback 1.56731 1.1358 1.75074
thorax -1.15775 0.590722 0.999105
lowerneck -5.52715 -2.84792 -6.56317
upperneck 19.8158 -2.517 0.635275
head 7.07903 -1.36831 1.1391
rclavicle -1.80894e-014 -1.43125e-014
rhumerus -34.2103 -7.0349 -75.1637
rradius 24.5054
rwrist -0.835456
rhand -11.9069 15.7369
rfingers 7.12502
rthumb 14.1467 -13.7615
lclavicle -1.80894e-014 -1.43125e-014
lhumerus -38.2832 -10.0207 90.9876
lradius 42.3139
lwrist 13.8587
lhand -4.16311 27.6856
lfingers 7.12502
lthumb 21.5973 56.5012
rfemur -12.5398 1.75706 21.1559
rtibia 25.0504
rfoot -19.6347 -17.6703
rtoes 0.959614
lfemur -28.8988 -3.85655 -25.3518
ltibia 39.607
lfoot -11.0505 6.26468
ltoes -18.7668
824
root -16.0196 17.968 10.2872 179.751 52.4463 172.275
lowerback 5.00181 0.767484 1.1681
upperback 1.59303 1.16343 1.70442
thorax -1.17925 0.604293 1.02451
lowerneck -5.6362 -2.87053 -6.49487
upperneck 19.7803 -2.54421 0.568364
head 7.0858 -1.38424 1.10238
rclavicle -1.39149e-014 3.18055e-014
rhumerus -34.2224 -7.0843 -75.2388
rradius 24.5324
rwrist -0.854344
rhand -11.9821 15.8224
rfingers 7.12502
rthumb 14.0742 -13.681
lclavicle -1.39149e-014 3.18055e-014
lhumerus -38.2669 -9.65487 90.7149
lradius 41.6117
lwrist 13.9094
lhand -4.34525 27.9547
lfingers 7.12502
lthumb 21.4224 56.7903
rfemur -12.3199 1.99664 21.0605
rtibia 24.8222
rfoot -19.7974 -17.6122
rtoes 2.15467
lfemur -29.0304 -3.83242 -25.4339
ltibia 39.2157
lfoot -10.6846 6.32519
ltoes -19.3777
825
root -16.0013 17.9708 10.2778 179.583 52.4455 172.022
lowerback 4.99415 0.763699 1.02206
upperback 1.59297 1.14768 1.62923
thorax -1.17618 0.595544 1.03022
lowerneck -5.64793 -2.87088 -6.46942
upperneck 19.7397 -2.55059 0.562703
head 7.07424 -1.38685 1.09551
rclavicle 2.28602e-014 2.38542e-014
rhumerus -34.1999 -7.13031 -75.3472
rradius 24.5087
rwrist -0.848631
rhand -12.0766 15.8393
rfingers 7.12502
rthumb 13.9832 -13.6704
lclavicle 2.28602e-014 2.38542e-014
lhumerus -38.2817 -9.36999 90.4732
lradius 40.8987
lwrist 14.0919
lhand -4.60931 27.7019
lfingers 7.12502
lthumb 21.1688 56.5662
rfemur -12.1488 2.10528 20.9103
rtibia 24.5771
rfoot -19.8767 -17.5931
rtoes 2.86167
lfemur -29.2297 -3.9911 -25.5426
ltibia 38.7819
lfoot -10.4316 6.31066
ltoes -18.757
826
root -15.9833 17.9719 10.2666 179.787 52.4056 172.395
lowerback 5.12217 0.703703 1.23232
upperback 1.60521 1.08581 1.70582
thorax -1.232 0.566051 0.992961
lowerneck -5.65876 -2.85161 -6.53128
upperneck 19.7219 -2.52024 0.576883
head 7.07065 -1.37612 1.11255
rclavicle -6.1822e-014 -4.77083e-015
rhumerus -34.2188 -6.92205 -75.4514
rradius 24.5783
rwrist -1.01399
rhand -11.9814 15.8215
rfingers 7.12502
rthumb 14.0749 -13.6818
lclavicle -6.1822e-014 -4.77083e-015
lhumerus -38.3667 -8.8168 90.2056
lradius 40.2476
lwrist 14.0556
lhand -4.66945 27.69
lfingers 7.12502
lthumb 21.111 56.5607
rfemur -11.8577 2.16847 21.2048
rtibia 24.3977
rfoot -19.8399 -17.7329
rtoes 2.73801
lfemur -29.3095 -4.06402 -25.2647
ltibia 38.2952
lfoot -10.086 6.2736
ltoes -19.0997
827
root -15.9657 17.9726 10.2561 180.026 52.38 172.831
lowerback 5.28653 0.660178 1.47487
upperback 1.62436 1.0503 1.79493
thorax -1.30108 0.550005 0.948629
lowerneck -5.71991 -2.85172 -6.61463
upperneck 19.7098 -2.51246 0.595944
head 7.0792 -1.37806 1.1323
rclavicle 3.16068e-014 1.74931e-014
rhumerus -34.2377 -6.74766 -75.5119
rradius 24.6894
rwrist -1.20488
rhand -11.7345 15.9641
rfingers 7.12502
rthumb 14.3128 -13.5226
lclavicle 3.16068e-014 1.74931e-014
lhumerus -38.3896 -8.16084 89.8857
lradius 39.5261
lwrist 13.7886
lhand -4.53243 27.8187
lfingers 7.12502
lthumb 21.2426 56.6747
rfemur -11.5772 2.23776 21.5299
rtibia 24.243
rfoot -19.8204 -17.8394
rtoes 2.39213
lfemur -29.3298 -4.02647 -24.9719
ltibia 37.7394
lfoot -9.76201 6.17503
ltoes -19.6333
828
root -15.9483 17.9727 10.2423 179.843 52.4259 172.488
lowerback 5.23409 0.692011 1.30125
upperback 1.60992 1.07756 1.70705
thorax -1.28828 0.56224 0.954569
lowerneck -5.82267 -2.87329 -6.61681
upperneck 19.7477 -2.53059 0.571862
head 7.11033 -1.39011 1.1222
rclavicle -1.46306e-013 -4.13472e-014
rhumerus -34.2184 -6.7944 -75.5664
rradius 24.7239
rwrist -1.26188
rhand -11.6157 16.1478
rfingers 7.12502
rthumb 14.4273 -13.3308
lclavicle -1.46306e-013 -4.13472e-014
lhumerus -38.3441 -7.66213 89.5411
lradius 38.7128
lwrist 13.7406
lhand -4.46632 27.5934
lfingers 7.12502
lthumb 21.3061 56.4422
rfemur -11.5408 2.17639 21.3106
rtibia 24.0955
rfoot -19.5555 -17.9789
rtoes 1.21237
lfemur -29.4827 -4.12622 -25.1715
ltibia 37.1092
lfoot -9.6984 6.13148
ltoes -18.0512
829
root -15.9294 17.9752 10.226 179.626 52.5132 172.023
lowerback 5.09639 0.729937 1.0657
upperback 1.55729 1.10551 1.57193
thorax -1.26743 0.573754 0.947636
lowerneck -5.79854 -2.87307 -6.4757
upperneck 19.7138 -2.52664 0.439207
head 7.0908 -1.38879 1.05637
rclavicle 8.50798e-014 -4.77083e-015
rhumerus -34.2623 -6.8125 -75.6894
rradius 24.7825
rwrist -1.30249
rhand -11.6623 16.2498
rfingers 7.12502
rthumb 14.3824 -13.2319
lclavicle 8.50798e-014 -4.77083e-015
lhumerus -38.3876 -7.17892 89.1397
lradius 37.9568
lwrist 13.82
lhand -4.47068 27.4226
lfingers 7.12502
lthumb 21.3019 56.2718
rfemur -11.6087 2.05022 20.9886
rtibia 24.0385
rfoot -19.4402 -17.8696
rtoes 0.821845
lfemur -29.6674 -4.22892 -25.4442
ltibia 36.3794
lfoot -9.58948 6.20198
ltoes -17.0544
830
root -15.9095 17.9833 10.2124 179.6 52.5775 171.955
lowerback 5.06243 0.7243 1.00211
upperback 1.57149 1.09266 1.5408
thorax -1.23436 0.567168 0.952714
lowerneck -5.85768 -2.85721 -6.39241
upperneck 19.704 -2.49412 0.331538
head 7.09431 -1.37711 1.00953
rclavicle -3.93594e-014 -3.02153e-014
rhumerus -34.2756 -6.56284 -75.8628
rradius 24.982
rwrist -1.64297
rhand -11.606 16.1244
rfingers 7.12502
rthumb 14.4367 -13.3534
lclavicle -3.93594e-014 -3.02153e-014
lhumerus -38.3947 -6.50841 88.711
lradius 37.2505
lwrist 13.5676
lhand -4.43666 27.5043
lfingers 7.12502
lthumb 21.3346 56.3499
rfemur -11.5553 2.11095 20.9293
rtibia 24.0398
rfoot -19.7261 -17.6515
rtoes 1.84079
lfemur -29.7341 -4.30515 -25.437
ltibia 35.5889
lfoot -9.26357 6.29531
ltoes -17.828
831
root -15.8888 17.9862 10.1978 179.479 52.6354 171.831
lowerback 5.07448 0.702554 0.912892
upperback 1.62403 1.05867 1.50958
thorax -1.18781 0.550588 0.973008
lowerneck -6.05055 -2.81977 -6.42733
upperneck 19.8094 -2.41741 0.302028
head 7.16073 -1.34741 1.00983
rclavicle 1.03567e-013 -5.725e-014
rhumerus -34.238 -6.1977 -76.0827
rradius 25.228
rwrist -1.97941
rhand -11.6398 15.9553
rfingers 7.12502
rthumb 14.4041 -13.5249
lclavicle 1.03567e-013 -5.725e-014
lhumerus -38.343 -5.77517 88.2701
lradius 36.5055
lwrist 13.0995
lhand -4.28746 27.5447
lfingers 7.12502
lthumb 21.4779 56.374
rfemur -11.407 2.18688 20.8498
rtibia 23.9824
rfoot -19.8651 -17.6052
rtoes 2.40591
lfemur -29.7312 -4.34449 -25.4729
ltibia 34.8063
lfoot -9.00393 6.28274
ltoes -17.868
832
root -15.8676 17.982 10.1812 179.378 52.7156 171.724
lowerback 5.1009 0.700571 0.860857
upperback 1.63343 1.05258 1.46886
thorax -1.19299 0.547334 0.96045
lowerneck -6.0552 -2.77434 -6.52073
upperneck 19.8218 -2.35302 0.362632
head 7.16564 -1.31836 1.05023
rclavicle -1.8487e-014 -1.43125e-014
rhumerus -34.2126 -5.94012 -76.2851
rradius 25.4101
rwrist -2.16173
rhand -11.7168 15.9057
rfingers 7.12502
rthumb 14.3299 -13.5798
lclavicle -1.8487e-014 -1.43125e-014
lhumerus -38.374 -5.20474 87.8957
lradius 35.7663
lwrist 12.8589
lhand -4.26322 27.6746
lfingers 7.12502
lthumb 21.5012 56.5013
rfemur -11.2314 2.19746 20.8112
rtibia 23.8614
rfoot -19.7059 -17.7705
rtoes 1.59238
lfemur -29.7475 -4.38583 -25.5075
ltibia 34.0405
lfoot -8.64686 6.34391
ltoes -17.1807
833
root -15.8446 17.9763 10.1639 179.508 52.8456 171.957
lowerback 5.13833 0.742011 1.01675
upperback 1.655 1.11703 1.46412
thorax -1.18938 0.58008 0.863938
lowerneck -6.05825 -2.7912 -6.52119
upperneck 19.8225 -2.38015 0.381923
head 7.16753 -1.33003 1.05429
rclavicle 7.45443e-014 -1.59028e-015
rhumerus -34.1558 -6.06418 -76.3778
rradius 25.451
rwrist -2.03608
rhand -11.6026 15.9531
rfingers 7.12502
rthumb 14.4399 -13.5245
lclavicle 7.45443e-014 -1.59028e-015
lhumerus -38.3613 -4.80691 87.5577
lradius 34.9593
lwrist 12.641
lhand -4.2277 27.7671
lfingers 7.12502
lthumb 21.5353 56.5899
rfemur -11.0197 2.18436 21.0093
rtibia 23.7433
rfoot -19.5019 -17.8626
rtoes 0.727245
lfemur -29.7381 -4.27444 -25.3694
ltibia 33.2539
lfoot -8.09445 6.48231
ltoes -18.0014
834
root -15.8194 17.974 10.1475 179.645 52.9829 172.194
lowerback 5.15757 0.757648 1.09167
upperback 1.67906 1.14397 1.50513
thorax -1.17502 0.594314 0.862332
lowerneck -6.05622 -2.78421 -6.57657
upperneck 19.8339 -2.36712 0.406394
head 7.17177 -1.32579 1.07251
rclavicle 6.63941e-014 -1.59028e-014
rhumerus -34.0833 -5.95323 -76.4931
rradius 25.5044
rwrist -2.11161
rhand -11.4532 15.9822
rfingers 7.12502
rthumb 14.5839 -13.4851
lclavicle 6.63941e-014 -1.59028e-014
lhumerus -38.3289 -4.25136 87.2216
lradius 34.119
lwrist 12.3396
lhand -4.25195 27.7922
lfingers 7.12502
lthumb 21.512 56.6176
rfemur -10.7969 2.42287 21.1825
rtibia 23.6241
rfoot -19.64 -17.8192
rtoes 1.40015
lfemur -29.6871 -4.16161 -25.205
ltibia 32.4343
lfoot -7.81074 6.49418
ltoes -19.3563
